<svg xmlns="http://www.w3.org/2000/svg" xmlns:xlink="http://www.w3.org/1999/xlink" width="150" zoomAndPan="magnify" viewBox="130 170 100 40"  preserveAspectRatio="xMidYMid meet" version="1.0"><defs><g/></defs><g fill="#003366" fill-opacity="1"><g transform="translate(148.136714, 202.499987)"><g><path d="M 11.875 -19.359375 C 13.664062 -19.359375 15.257812 -18.929688 16.65625 -18.078125 C 18.0625 -17.222656 19.15625 -16.039062 19.9375 -14.53125 C 20.726562 -13.03125 21.125 -11.320312 21.125 -9.40625 C 21.125 -7.457031 20.722656 -5.722656 19.921875 -4.203125 C 19.117188 -2.679688 18.007812 -1.492188 16.59375 -0.640625 C 15.1875 0.210938 13.585938 0.640625 11.796875 0.640625 C 10.460938 0.640625 9.234375 0.34375 8.109375 -0.25 C 6.992188 -0.851562 6.050781 -1.691406 5.28125 -2.765625 L 5.28125 0 L 2.5625 0 L 2.5625 -29.046875 L 5.28125 -29.046875 L 5.28125 -15.921875 C 6.050781 -17.015625 7.003906 -17.859375 8.140625 -18.453125 C 9.273438 -19.054688 10.519531 -19.359375 11.875 -19.359375 Z M 11.875 -1.84375 C 13.132812 -1.84375 14.253906 -2.160156 15.234375 -2.796875 C 16.222656 -3.441406 17 -4.335938 17.5625 -5.484375 C 18.125 -6.628906 18.40625 -7.9375 18.40625 -9.40625 C 18.40625 -10.84375 18.125 -12.125 17.5625 -13.25 C 17 -14.382812 16.222656 -15.269531 15.234375 -15.90625 C 14.253906 -16.550781 13.132812 -16.875 11.875 -16.875 C 10.59375 -16.875 9.453125 -16.550781 8.453125 -15.90625 C 7.453125 -15.269531 6.671875 -14.378906 6.109375 -13.234375 C 5.554688 -12.085938 5.28125 -10.796875 5.28125 -9.359375 C 5.28125 -7.921875 5.554688 -6.628906 6.109375 -5.484375 C 6.671875 -4.335938 7.453125 -3.441406 8.453125 -2.796875 C 9.453125 -2.160156 10.59375 -1.84375 11.875 -1.84375 Z M 11.875 -1.84375 "/></g></g></g><g fill="#003366" fill-opacity="1"><g transform="translate(170.57448, 202.499987)"><g><path d="M 11.71875 -19.359375 C 12.363281 -19.359375 12.976562 -19.265625 13.5625 -19.078125 L 13.5625 -16.59375 C 13 -16.863281 12.382812 -17 11.71875 -17 C 10.570312 -17 9.503906 -16.675781 8.515625 -16.03125 C 7.535156 -15.394531 6.742188 -14.46875 6.140625 -13.25 C 5.535156 -12.039062 5.234375 -10.609375 5.234375 -8.953125 L 5.234375 0 L 2.515625 0 L 2.515625 -18.71875 L 5.234375 -18.71875 L 5.234375 -14.953125 C 5.953125 -16.347656 6.863281 -17.429688 7.96875 -18.203125 C 9.082031 -18.972656 10.332031 -19.359375 11.71875 -19.359375 Z M 11.71875 -19.359375 "/></g></g></g><g fill="#003366" fill-opacity="1"><g transform="translate(184.13313, 202.499987)"><g><path d="M 10.6875 0.640625 C 8.894531 0.640625 7.289062 0.210938 5.875 -0.640625 C 4.46875 -1.492188 3.363281 -2.6875 2.5625 -4.21875 C 1.757812 -5.75 1.359375 -7.476562 1.359375 -9.40625 C 1.359375 -11.320312 1.75 -13.03125 2.53125 -14.53125 C 3.320312 -16.039062 4.414062 -17.222656 5.8125 -18.078125 C 7.21875 -18.929688 8.8125 -19.359375 10.59375 -19.359375 C 12.382812 -19.359375 13.984375 -18.929688 15.390625 -18.078125 C 16.804688 -17.222656 17.914062 -16.035156 18.71875 -14.515625 C 19.519531 -12.992188 19.921875 -11.273438 19.921875 -9.359375 C 19.921875 -7.441406 19.523438 -5.722656 18.734375 -4.203125 C 17.953125 -2.679688 16.859375 -1.492188 15.453125 -0.640625 C 14.054688 0.210938 12.46875 0.640625 10.6875 0.640625 Z M 10.59375 -1.84375 C 11.875 -1.84375 13.015625 -2.160156 14.015625 -2.796875 C 15.015625 -3.441406 15.796875 -4.335938 16.359375 -5.484375 C 16.921875 -6.628906 17.203125 -7.921875 17.203125 -9.359375 C 17.203125 -10.796875 16.921875 -12.085938 16.359375 -13.234375 C 15.796875 -14.378906 15.015625 -15.269531 14.015625 -15.90625 C 13.015625 -16.550781 11.875 -16.875 10.59375 -16.875 C 9.34375 -16.875 8.222656 -16.550781 7.234375 -15.90625 C 6.253906 -15.269531 5.484375 -14.382812 4.921875 -13.25 C 4.359375 -12.125 4.078125 -10.84375 4.078125 -9.40625 C 4.078125 -7.9375 4.359375 -6.628906 4.921875 -5.484375 C 5.484375 -4.335938 6.253906 -3.441406 7.234375 -2.796875 C 8.222656 -2.160156 9.34375 -1.84375 10.59375 -1.84375 Z M 10.59375 -1.84375 "/></g></g></g><g fill="#003366" fill-opacity="1"><g transform="translate(205.371016, 202.499987)"><g><path d="M 11.4375 -19.359375 C 12.75 -19.359375 13.957031 -19.09375 15.0625 -18.5625 C 16.164062 -18.03125 17.046875 -17.242188 17.703125 -16.203125 C 18.359375 -15.160156 18.6875 -13.929688 18.6875 -12.515625 L 18.6875 0 L 15.953125 0 L 15.953125 -11.3125 C 15.953125 -15.019531 14.300781 -16.875 11 -16.875 C 9.082031 -16.875 7.640625 -16.191406 6.671875 -14.828125 C 5.710938 -13.472656 5.234375 -11.648438 5.234375 -9.359375 L 5.234375 0 L 2.515625 0 L 2.515625 -18.71875 L 5.234375 -18.71875 L 5.234375 -15.59375 C 5.878906 -16.800781 6.726562 -17.726562 7.78125 -18.375 C 8.832031 -19.03125 10.050781 -19.359375 11.4375 -19.359375 Z M 11.4375 -19.359375 "/></g></g></g><g fill="#003366" fill-opacity="1"><g transform="translate(148.759725, 203.289992)"><g><path d="M 0 -1.9375 L -8.9375 -1.9375 L -8.9375 -0.171875 L -10.296875 -0.171875 L -10.296875 -1.9375 L -13.703125 -1.9375 L -13.703125 -3.4375 L -10.296875 -3.4375 L -10.296875 -5.8125 L -8.9375 -5.8125 L -8.9375 -3.4375 L 0 -3.4375 Z M 0 -1.9375 "/></g></g></g><g fill="#003366" fill-opacity="1"><g transform="translate(148.759725, 197.241069)"><g><path d="M -10.640625 -6.296875 C -10.640625 -7.015625 -10.492188 -7.675781 -10.203125 -8.28125 C -9.910156 -8.894531 -9.476562 -9.378906 -8.90625 -9.734375 C -8.332031 -10.097656 -7.660156 -10.28125 -6.890625 -10.28125 L 0 -10.28125 L 0 -8.78125 L -6.21875 -8.78125 C -8.257812 -8.78125 -9.28125 -7.867188 -9.28125 -6.046875 C -9.28125 -4.992188 -8.90625 -4.203125 -8.15625 -3.671875 C -7.414062 -3.140625 -6.410156 -2.875 -5.140625 -2.875 L 0 -2.875 L 0 -1.390625 L -15.96875 -1.390625 L -15.96875 -2.875 L -8.578125 -2.875 C -9.234375 -3.226562 -9.738281 -3.691406 -10.09375 -4.265625 C -10.457031 -4.847656 -10.640625 -5.523438 -10.640625 -6.296875 Z M -10.640625 -6.296875 "/></g></g></g><g fill="#003366" fill-opacity="1"><g transform="translate(148.759725, 185.495163)"><g><path d="M -10.640625 -5.828125 C -10.640625 -6.753906 -10.410156 -7.585938 -9.953125 -8.328125 C -9.503906 -9.078125 -8.890625 -9.664062 -8.109375 -10.09375 C -7.328125 -10.519531 -6.453125 -10.734375 -5.484375 -10.734375 C -5.203125 -10.734375 -4.988281 -10.726562 -4.84375 -10.71875 L -4.84375 -2.25 C -3.78125 -2.300781 -2.875 -2.640625 -2.125 -3.265625 C -1.382812 -3.898438 -1.015625 -4.765625 -1.015625 -5.859375 C -1.015625 -6.734375 -1.175781 -7.457031 -1.5 -8.03125 C -1.832031 -8.613281 -2.289062 -9.082031 -2.875 -9.4375 L -2.09375 -10.625 C -1.332031 -10.144531 -0.734375 -9.507812 -0.296875 -8.71875 C 0.140625 -7.925781 0.359375 -6.984375 0.359375 -5.890625 C 0.359375 -4.898438 0.125 -4.015625 -0.34375 -3.234375 C -0.820312 -2.453125 -1.476562 -1.84375 -2.3125 -1.40625 C -3.144531 -0.96875 -4.085938 -0.75 -5.140625 -0.75 C -6.203125 -0.75 -7.148438 -0.960938 -7.984375 -1.390625 C -8.816406 -1.828125 -9.46875 -2.429688 -9.9375 -3.203125 C -10.40625 -3.972656 -10.640625 -4.847656 -10.640625 -5.828125 Z M -6.078125 -9.234375 C -7.140625 -9.085938 -7.9375 -8.726562 -8.46875 -8.15625 C -9.007812 -7.582031 -9.28125 -6.804688 -9.28125 -5.828125 C -9.28125 -4.878906 -8.972656 -4.097656 -8.359375 -3.484375 C -7.753906 -2.878906 -6.992188 -2.492188 -6.078125 -2.328125 Z M -6.078125 -9.234375 "/></g></g></g></svg>